<svg width="64" height="64" viewBox="0 0 64 64" fill="none" xmlns="http://www.w3.org/2000/svg">
  <rect x="7" y="7" width="50" height="50" rx="8" fill="#F7DF1E"/>
  <path d="M19 46.4L22.7 44.2C23.4 45.5 24 46.7 25.6 46.7C27.1 46.7 28 46.1 28 43.8V28H32.6V43.9C32.6 48.7 29.8 50.9 25.8 50.9C22.1 50.9 20 49 19 46.4Z" fill="#111827"/>
  <path d="M35.1 45.9L38.8 43.8C39.8 45.4 41 46.6 43.2 46.6C45.1 46.6 46.3 45.7 46.3 44.4C46.3 42.9 45.1 42.3 43 41.4L41.9 40.9C38.6 39.5 36.4 37.8 36.4 34.1C36.4 30.7 39 28.2 43 28.2C45.9 28.2 47.9 29.2 49.4 31.8L45.9 34.1C45.1 32.7 44.2 32.2 43 32.2C41.7 32.2 40.8 33 40.8 34.1C40.8 35.4 41.6 36 43.5 36.8L44.6 37.3C48.5 39 50.7 40.6 50.7 44.3C50.7 48.3 47.6 50.5 43.3 50.5C39.2 50.5 36.5 48.5 35.1 45.9Z" fill="#111827"/>
</svg>
