<svg width="64" height="64" viewBox="0 0 64 64" fill="none" xmlns="http://www.w3.org/2000/svg">
  <path d="M31.6 6C19.8 6 20.5 11.1 20.5 11.1V16.4H32V18H16.1C16.1 18 8 17.1 8 29.8C8 42.5 15.1 42 15.1 42H19.4V36C19.4 36 19.2 28.9 26.4 28.9H37.8C37.8 28.9 44.2 29 44.2 22.7V12.4C44.2 12.4 45.2 6 31.6 6ZM25.3 10.3C26.4 10.3 27.3 11.2 27.3 12.3C27.3 13.4 26.4 14.3 25.3 14.3C24.2 14.3 23.3 13.4 23.3 12.3C23.3 11.2 24.2 10.3 25.3 10.3Z" fill="#3776AB"/>
  <path d="M32.4 58C44.2 58 43.5 52.9 43.5 52.9V47.6H32V46H47.9C47.9 46 56 46.9 56 34.2C56 21.5 48.9 22 48.9 22H44.6V28C44.6 28 44.8 35.1 37.6 35.1H26.2C26.2 35.1 19.8 35 19.8 41.3V51.6C19.8 51.6 18.8 58 32.4 58ZM38.7 53.7C37.6 53.7 36.7 52.8 36.7 51.7C36.7 50.6 37.6 49.7 38.7 49.7C39.8 49.7 40.7 50.6 40.7 51.7C40.7 52.8 39.8 53.7 38.7 53.7Z" fill="#FFD43B"/>
</svg>
