<svg width="64" height="64" viewBox="0 0 64 64" fill="none" xmlns="http://www.w3.org/2000/svg">
  <path d="M32 19C25.1 19 20.8 22.5 19 29.4C21.6 25.9 24.7 24.6 28.4 25.5C30.5 26 32 27.5 33.7 29.1C36.4 31.8 39.5 34.8 46 34.8C52.9 34.8 57.2 31.3 59 24.4C56.4 27.9 53.3 29.2 49.6 28.3C47.5 27.8 46 26.3 44.3 24.7C41.6 22 38.5 19 32 19Z" fill="#38BDF8"/>
  <path d="M18 29.2C11.1 29.2 6.8 32.7 5 39.6C7.6 36.1 10.7 34.8 14.4 35.7C16.5 36.2 18 37.7 19.7 39.3C22.4 42 25.5 45 32 45C38.9 45 43.2 41.5 45 34.6C42.4 38.1 39.3 39.4 35.6 38.5C33.5 38 32 36.5 30.3 34.9C27.6 32.2 24.5 29.2 18 29.2Z" fill="#38BDF8"/>
</svg>
