<svg width="64" height="64" viewBox="0 0 64 64" fill="none" xmlns="http://www.w3.org/2000/svg">
  <rect x="7" y="7" width="50" height="50" rx="8" fill="#3178C6"/>
  <path d="M18 29.5H33V34H27.9V49H23.1V34H18V29.5Z" fill="white"/>
  <path d="M35.5 47.8V42.9C36.5 43.7 37.6 44.3 38.8 44.7C40 45.1 41.1 45.3 42.1 45.3C43.2 45.3 44.1 45.1 44.7 44.7C45.3 44.3 45.6 43.8 45.6 43.1C45.6 42.5 45.3 42 44.8 41.6C44.3 41.2 43.2 40.8 41.6 40.3C39.3 39.6 37.7 38.8 36.8 37.8C35.9 36.8 35.5 35.6 35.5 34.1C35.5 32.3 36.2 30.9 37.6 29.9C39 28.9 40.8 28.4 43 28.4C45 28.4 46.9 28.8 48.6 29.6V34.2C47.1 33.1 45.4 32.6 43.5 32.6C42.5 32.6 41.8 32.8 41.2 33.1C40.6 33.5 40.3 34 40.3 34.6C40.3 35.2 40.6 35.7 41.1 36.1C41.6 36.5 42.6 36.9 44 37.3C46.4 38 48.1 38.9 49.1 39.9C50.1 40.9 50.6 42.2 50.6 43.8C50.6 45.7 49.9 47.1 48.5 48.1C47.1 49.1 45.2 49.6 42.8 49.6C40 49.6 37.6 49 35.5 47.8Z" fill="white"/>
</svg>
