<svg width="24" height="24" viewBox="0 0 24 24" fill="none" xmlns="http://www.w3.org/2000/svg" aria-hidden="true">
  <path d="M19.53 5.34A15.2 15.2 0 0 0 15.66 4l-.2.4c1.43.34 2.09.82 2.09.82-1.66-.78-3.25-.78-4.55-.78-1.3 0-2.89 0-4.55.78 0 0 .66-.48 2.09-.82l-.2-.4a15.2 15.2 0 0 0-3.87 1.34C2.91 8.3 2.52 11.1 2.7 13.86c1.49 1.11 3.02 1.78 4.53 2.2.37-.5.7-1.03.98-1.6a9.4 9.4 0 0 1-1.55-.75c.13-.1.25-.2.37-.31 2.99 1.39 6.22 1.39 9.17 0 .12.11.25.21.37.31-.48.3-1 .56-1.55.75.28.57.61 1.1.98 1.6 1.5-.42 3.04-1.09 4.53-2.2.22-3.06-.48-5.83-2.02-8.52ZM9.64 12.92c-.7 0-1.27-.65-1.27-1.45 0-.8.56-1.45 1.27-1.45.7 0 1.28.65 1.27 1.45 0 .8-.56 1.45-1.27 1.45Zm4.72 0c-.7 0-1.27-.65-1.27-1.45 0-.8.56-1.45 1.27-1.45.7 0 1.28.65 1.27 1.45 0 .8-.56 1.45-1.27 1.45Z" fill="#111827"/>
</svg>
