<svg width="24" height="24" viewBox="0 0 24 24" fill="none" xmlns="http://www.w3.org/2000/svg" aria-hidden="true">
  <path d="M12 2C6.477 2 2 6.58 2 12.232c0 4.523 2.865 8.36 6.84 9.718.5.095.682-.222.682-.494 0-.244-.009-.89-.014-1.748-2.783.623-3.37-1.377-3.37-1.377-.455-1.187-1.11-1.503-1.11-1.503-.908-.635.069-.622.069-.622 1.004.072 1.533 1.055 1.533 1.055.893 1.56 2.343 1.109 2.913.848.092-.662.35-1.11.637-1.366-2.22-.257-4.555-1.14-4.555-5.075 0-1.12.39-2.036 1.03-2.753-.104-.258-.447-1.298.1-2.706 0 0 .84-.274 2.75 1.052A9.345 9.345 0 0 1 12 6.69c.85.004 1.705.117 2.505.344 1.91-1.326 2.747-1.052 2.747-1.052.548 1.408.204 2.448.1 2.706.64.717 1.028 1.633 1.028 2.753 0 3.944-2.338 4.814-4.566 5.067.359.317.679.94.679 1.894 0 1.366-.012 2.467-.012 2.802 0 .275.18.594.688.493A10.031 10.031 0 0 0 22 12.232C22 6.58 17.523 2 12 2Z" fill="#111827"/>
</svg>
